<?xml version="1.0" standalone="no"?>
<!DOCTYPE svg PUBLIC "-//W3C//DTD SVG 20010904//EN"
 "http://www.w3.org/TR/2001/REC-SVG-20010904/DTD/svg10.dtd">
<svg version="1.0" xmlns="http://www.w3.org/2000/svg"
 width="1024.000000pt" height="767.000000pt" viewBox="0 0 1024.000000 767.000000"
 preserveAspectRatio="xMidYMid meet">

<g transform="translate(0.000000,767.000000) scale(0.100000,-0.100000)"
fill="#000000" stroke="none">
<path d="M4590 7169 c-366 -47 -724 -211 -1025 -472 -253 -218 -381 -386 -470
-616 -110 -282 -144 -436 -152 -687 -8 -267 19 -449 102 -688 39 -110 43 -150
18 -170 -10 -8 -33 -27 -52 -42 -49 -40 -71 -95 -71 -179 0 -81 10 -123 52
-219 56 -130 198 -353 301 -475 55 -65 66 -83 112 -184 23 -49 39 -68 101
-113 41 -30 74 -61 74 -70 0 -20 -55 -52 -117 -65 -29 -7 -53 -16 -53 -21 0
-12 59 -46 92 -53 34 -8 34 -11 4 -56 -29 -43 -102 -93 -168 -117 -54 -19 -62
-32 -19 -32 53 0 225 -49 296 -85 60 -30 80 -47 136 -118 114 -144 119 -152
134 -272 33 -253 137 -794 200 -1047 115 -456 194 -608 317 -608 50 0 104 47
119 103 28 104 43 140 79 196 40 61 80 91 123 91 56 0 161 -101 245 -236 48
-77 116 -96 183 -51 44 29 60 75 52 150 -7 70 9 93 71 102 66 10 106 -5 128
-47 33 -64 58 -212 64 -388 7 -208 7 -210 42 -210 56 0 235 177 290 285 36 74
37 113 1 217 -47 139 -29 191 91 268 88 56 260 103 260 71 0 -5 -18 -47 -40
-93 -50 -105 -59 -151 -35 -178 36 -40 139 -15 232 56 47 36 63 102 72 299 8
151 10 167 35 209 44 75 152 149 256 174 25 6 101 16 170 22 160 13 213 26
244 57 71 71 36 163 -129 333 -40 41 -87 98 -106 125 -61 91 -188 319 -182
328 13 21 103 -2 241 -60 6 -3 12 2 12 10 0 15 -64 77 -99 97 -46 24 -23 33
74 26 52 -3 138 -9 190 -12 68 -5 95 -3 95 5 0 6 -6 11 -13 11 -32 0 -651 180
-659 192 -34 53 -25 147 27 305 38 112 54 204 79 443 9 80 25 192 36 250 12
58 27 150 35 205 15 106 29 134 85 172 70 48 226 71 376 54 56 -6 108 -9 116
-6 26 10 38 52 38 128 0 95 -22 185 -68 277 -47 95 -101 167 -257 340 l-125
138 0 64 c-1 364 -134 734 -378 1048 -88 113 -286 316 -392 400 -288 229 -611
369 -959 415 -115 16 -423 18 -531 4z m480 -49 c536 -65 995 -341 1360 -820
202 -266 339 -608 357 -895 l6 -100 -42 52 c-97 120 -289 261 -504 369 -126
63 -158 72 -186 55 -24 -15 -4 -39 41 -51 96 -26 292 -144 455 -275 139 -111
498 -503 591 -644 69 -104 111 -222 113 -313 2 -71 -2 -82 -31 -98 -36 -19
-76 31 -154 194 -40 83 -94 179 -119 213 -69 93 -173 162 -244 163 -59 0 -55
-63 8 -122 34 -31 48 -76 28 -88 -27 -17 -89 32 -139 110 -27 41 -57 86 -68
100 l-19 24 -59 -18 c-69 -21 -103 -13 -130 31 -49 79 -62 94 -98 108 -30 13
-57 15 -120 9 -95 -8 -123 -20 -161 -69 -25 -34 -31 -37 -66 -31 -47 8 -71
-14 -89 -80 -15 -51 -50 -84 -91 -84 -22 0 -29 5 -34 29 -8 36 -33 43 -96 30
-56 -12 -84 -40 -94 -94 -13 -77 -58 -118 -97 -90 -31 21 -91 19 -139 -6 -64
-32 -120 -89 -307 -314 -309 -371 -403 -463 -437 -435 -8 7 -15 21 -15 32 0
38 62 178 120 271 61 96 72 127 46 127 -27 0 -75 -51 -177 -188 -111 -150
-166 -212 -186 -212 -37 0 -256 136 -267 166 -7 18 5 42 33 68 24 22 28 46 6
46 -8 0 -32 -9 -52 -20 -30 -16 -40 -17 -49 -7 -7 6 -78 89 -158 182 -151 175
-216 262 -216 289 0 40 218 327 380 501 61 65 110 124 110 131 0 21 -30 17
-79 -9 -47 -26 -102 -85 -326 -355 -82 -100 -156 -181 -163 -182 -22 0 -77 68
-121 150 -48 90 -67 111 -82 89 -17 -25 -1 -69 60 -168 113 -185 120 -207 86
-276 -13 -27 -48 -77 -78 -109 l-53 -59 -62 28 c-105 47 -131 90 -198 333 -95
347 -94 691 5 1022 39 133 114 317 158 390 140 231 387 477 637 634 221 139
480 232 736 265 95 12 372 13 470 1z m-1836 -2664 c94 -53 129 -112 106 -181
-11 -34 -51 -65 -83 -65 -34 0 -120 33 -167 65 -89 60 -109 39 -35 -35 25 -25
60 -65 78 -90 23 -32 53 -55 101 -80 78 -40 93 -57 175 -190 55 -89 94 -131
212 -230 38 -32 40 -37 35 -72 -6 -35 -3 -42 39 -87 69 -74 60 -85 -58 -72
-81 9 -113 22 -121 49 -4 10 -27 33 -52 50 -54 39 -56 65 -6 70 34 3 52 26 35
43 -5 5 -36 14 -68 20 -33 6 -70 17 -83 25 -12 8 -41 51 -63 97 -23 45 -65
114 -93 152 -29 39 -63 86 -76 105 -13 19 -40 53 -61 75 -44 48 -59 95 -59
193 0 98 22 138 95 176 45 24 82 19 149 -18z m478 12 c33 -26 212 -313 224
-360 17 -62 29 -84 82 -143 53 -59 68 -91 134 -290 60 -179 82 -225 142 -295
55 -64 65 -110 43 -196 -9 -32 -12 -62 -8 -66 3 -4 31 13 61 37 30 25 62 45
71 45 18 0 36 -39 59 -122 15 -56 59 -91 134 -108 56 -12 103 -1 132 31 11 12
53 38 94 59 41 21 100 58 131 82 30 24 74 52 96 62 39 17 42 21 52 77 12 71
32 102 78 124 54 26 62 10 34 -75 -25 -78 -19 -120 19 -155 33 -30 47 -6 52
96 5 82 8 93 34 120 27 28 28 31 16 74 -18 66 -15 84 11 89 48 10 410 36 416
31 3 -4 8 -55 11 -114 5 -105 6 -108 35 -133 29 -26 30 -27 34 -144 l3 -117
-22 6 c-18 5 -37 -7 -89 -55 -89 -81 -131 -102 -194 -95 -54 7 -86 24 -177 97
-34 28 -72 50 -84 50 -12 0 -37 -11 -56 -25 -40 -30 -47 -30 -72 -8 -17 15
-21 15 -29 3 -10 -16 -3 -78 12 -96 5 -7 39 -19 76 -28 96 -24 116 -38 223
-147 122 -126 120 -125 248 -25 68 54 90 84 120 163 11 29 34 70 51 92 17 21
31 50 31 62 0 44 -28 263 -40 318 -9 40 -9 59 -1 78 11 23 16 25 53 19 23 -4
64 -19 92 -34 64 -35 190 -152 222 -209 l26 -43 28 43 c27 43 74 87 92 87 23
0 -27 -197 -80 -315 -24 -55 -67 -158 -94 -230 -27 -71 -54 -142 -59 -157 -14
-36 -40 -43 -80 -23 -26 14 -56 16 -168 13 l-136 -3 -69 -43 -70 -42 -139 0
c-132 0 -142 -1 -207 -30 -38 -17 -100 -38 -137 -46 -84 -21 -97 -27 -101 -49
-5 -24 15 -35 68 -35 76 1 131 19 194 65 70 53 106 62 165 41 24 -9 76 -16
118 -16 65 0 84 4 146 35 60 29 81 35 138 35 39 0 94 8 131 20 76 24 78 24 78
4 0 -61 -205 -252 -310 -289 -54 -19 -223 -42 -392 -54 -75 -5 -147 -15 -160
-21 -37 -20 -58 -42 -58 -61 0 -37 36 -44 235 -44 232 0 350 19 458 73 125 62
152 99 328 438 86 164 164 322 175 349 l19 50 3 -35 c8 -77 -63 -311 -185
-620 -131 -330 -195 -442 -314 -555 -119 -112 -240 -157 -419 -158 -211 -1
-396 82 -646 289 -122 101 -441 402 -536 506 -190 207 -309 400 -350 571 -12
48 -18 90 -15 93 3 4 34 -19 69 -51 35 -31 142 -116 238 -189 269 -203 325
-238 239 -148 -79 81 -463 561 -672 837 -139 184 -154 219 -167 379 -14 185
-13 539 2 554 15 15 40 15 60 0z m2881 -1800 c63 -128 139 -269 167 -313 55
-84 163 -215 225 -275 53 -51 80 -106 66 -137 -16 -36 -67 -52 -203 -63 -312
-27 -447 -101 -500 -275 -5 -16 -13 -104 -18 -195 -5 -91 -14 -180 -19 -199
-23 -74 -107 -128 -193 -122 -28 2 -22 39 21 124 57 112 67 166 53 290 -25
215 -13 250 110 321 85 48 164 121 192 177 34 68 34 129 1 251 -34 126 -85
392 -85 442 0 55 23 149 44 181 9 14 18 25 20 25 2 0 55 -105 119 -232z
m-2598 -179 c66 -79 97 -177 71 -228 -16 -29 -15 -33 4 -71 11 -22 30 -85 41
-141 28 -141 62 -244 105 -314 45 -74 185 -256 240 -311 46 -46 105 -66 252
-84 106 -13 191 -55 290 -146 112 -102 151 -188 117 -253 -13 -26 -22 -32 -42
-29 -20 2 -37 20 -75 83 -93 150 -192 225 -302 228 -94 2 -141 -44 -187 -183
-34 -101 -66 -160 -96 -171 -47 -18 -91 8 -125 76 -24 47 -26 53 -84 260 -137
495 -206 817 -249 1170 -19 156 -12 175 40 114z"/>
</g>
</svg>
